<svg xmlns="http://www.w3.org/2000/svg" xmlns:xlink="http://www.w3.org/1999/xlink" width="512" zoomAndPan="magnify" viewBox="0 0 384 383.999986" height="512" preserveAspectRatio="xMidYMid meet" version="1.0"><defs><g/><clipPath id="16ef247207"><rect x="0" width="127" y="0" height="353"/></clipPath><clipPath id="af8532b47f"><path d="M 158.101562 218.144531 L 198.65625 218.144531 L 198.65625 288.816406 L 158.101562 288.816406 Z M 158.101562 218.144531 " clip-rule="nonzero"/></clipPath><clipPath id="5526b5d421"><path d="M 0.101562 0.144531 L 40.65625 0.144531 L 40.65625 70.816406 L 0.101562 70.816406 Z M 0.101562 0.144531 " clip-rule="nonzero"/></clipPath><clipPath id="6fa26a01e4"><rect x="0" width="41" y="0" height="71"/></clipPath><clipPath id="2ed3a222f0"><path d="M 181.425781 218.144531 L 227.628906 218.144531 L 227.628906 282.941406 L 181.425781 282.941406 Z M 181.425781 218.144531 " clip-rule="nonzero"/></clipPath><clipPath id="a8846d2ebf"><path d="M 198.195312 218.144531 L 227.628906 218.144531 L 210.859375 282.84375 L 181.425781 282.84375 Z M 198.195312 218.144531 " clip-rule="nonzero"/></clipPath><clipPath id="eea0cde0a9"><path d="M 0.425781 0.144531 L 46.628906 0.144531 L 46.628906 64.941406 L 0.425781 64.941406 Z M 0.425781 0.144531 " clip-rule="nonzero"/></clipPath><clipPath id="b7c9bbe75a"><path d="M 17.195312 0.144531 L 46.628906 0.144531 L 29.859375 64.84375 L 0.425781 64.84375 Z M 17.195312 0.144531 " clip-rule="nonzero"/></clipPath><clipPath id="1bd97626df"><rect x="0" width="47" y="0" height="65"/></clipPath><clipPath id="423e24c902"><path d="M 0 119 L 166 119 L 166 298 L 0 298 Z M 0 119 " clip-rule="nonzero"/></clipPath><clipPath id="7dfa540393"><rect x="0" width="204" y="0" height="384"/></clipPath><clipPath id="08d5ed7528"><path d="M 246 34 L 383.761719 34 L 383.761719 318 L 246 318 Z M 246 34 " clip-rule="nonzero"/></clipPath><clipPath id="babe1794d7"><rect x="0" width="138" y="0" height="284"/></clipPath><clipPath id="17c930a8e2"><path d="M 269 93 L 349 93 L 349 143 L 269 143 Z M 269 93 " clip-rule="nonzero"/></clipPath><clipPath id="658f995d8e"><path d="M 296.492188 155.683594 L 269.480469 121.847656 L 321.816406 80.0625 L 348.828125 113.898438 Z M 296.492188 155.683594 " clip-rule="nonzero"/></clipPath><clipPath id="cdc14b2492"><path d="M 286.03125 142.578125 L 269.480469 121.847656 L 332.277344 93.171875 L 348.828125 113.898438 Z M 286.03125 142.578125 " clip-rule="nonzero"/></clipPath><clipPath id="a7c0feb8c5"><path d="M 0.28125 0.121094 L 79.960938 0.121094 L 79.960938 49.800781 L 0.28125 49.800781 Z M 0.28125 0.121094 " clip-rule="nonzero"/></clipPath><clipPath id="7c8324ddfd"><path d="M 27.492188 62.683594 L 0.480469 28.847656 L 52.816406 -12.9375 L 79.828125 20.898438 Z M 27.492188 62.683594 " clip-rule="nonzero"/></clipPath><clipPath id="535f792146"><path d="M 17.03125 49.578125 L 0.480469 28.847656 L 63.277344 0.171875 L 79.828125 20.898438 Z M 17.03125 49.578125 " clip-rule="nonzero"/></clipPath><clipPath id="35cf8ebced"><rect x="0" width="80" y="0" height="50"/></clipPath><clipPath id="8ccaaf3dec"><path d="M 222.699219 112.253906 L 286.429688 112.253906 L 286.429688 142.078125 L 222.699219 142.078125 Z M 222.699219 112.253906 " clip-rule="nonzero"/></clipPath><clipPath id="cfaa561c91"><path d="M 0.699219 0.253906 L 64.429688 0.253906 L 64.429688 30.078125 L 0.699219 30.078125 Z M 0.699219 0.253906 " clip-rule="nonzero"/></clipPath><clipPath id="54b940578b"><rect x="0" width="65" y="0" height="31"/></clipPath><clipPath id="2b949cecca"><rect x="0" width="384" y="0" height="384"/></clipPath></defs><rect x="-38.4" width="460.8" fill="#ffffff" y="-38.399999" height="460.799983" fill-opacity="1"/><rect x="-38.4" width="460.8" fill="#191919" y="-38.399999" height="460.799983" fill-opacity="1"/><g><g clip-path="url(#2b949cecca)"><g transform="matrix(1, 0, 0, 1, 141, 11)"><g clip-path="url(#16ef247207)"><g fill="#ffffff" fill-opacity="1"><g transform="translate(2.673587, 259.835005)"><g><path d="M 18.4375 0 L 18.4375 -127.390625 L 45.859375 -127.390625 L 50.71875 -110.40625 C 54.925781 -116.394531 60.101562 -120.722656 66.25 -123.390625 C 72.394531 -126.054688 80.160156 -127.390625 89.546875 -127.390625 L 103.375 -127.390625 L 103.375 -93.90625 L 89.296875 -93.90625 C 78.785156 -93.90625 70.492188 -91.070312 64.421875 -85.40625 C 58.359375 -79.75 55.328125 -70.046875 55.328125 -56.296875 L 55.328125 0 Z M 18.4375 0 "/></g></g></g><g fill="#ffffff" fill-opacity="1"><g transform="translate(90.294675, 259.835005)"><g/></g></g></g></g><g clip-path="url(#af8532b47f)"><g transform="matrix(1, 0, 0, 1, 158, 218)"><g clip-path="url(#6fa26a01e4)"><g clip-path="url(#5526b5d421)"><path fill="#191919" d="M 0.101562 0.144531 L 40.65625 0.144531 L 40.65625 70.796875 L 0.101562 70.796875 Z M 0.101562 0.144531 " fill-opacity="1" fill-rule="nonzero"/></g></g></g></g><g clip-path="url(#2ed3a222f0)"><g clip-path="url(#a8846d2ebf)"><g transform="matrix(1, 0, 0, 1, 181, 218)"><g clip-path="url(#1bd97626df)"><g clip-path="url(#eea0cde0a9)"><g clip-path="url(#b7c9bbe75a)"><path fill="#ff9800" d="M 0.425781 0.144531 L 46.628906 0.144531 L 46.628906 64.761719 L 0.425781 64.761719 Z M 0.425781 0.144531 " fill-opacity="1" fill-rule="nonzero"/></g></g></g></g></g></g><g><g clip-path="url(#7dfa540393)"><g clip-path="url(#423e24c902)"><g fill="#ffffff" fill-opacity="1"><g transform="translate(26.924505, 298.090136)"><g><path d="M 73.734375 -27.46875 C 61.210938 -22.175781 49.046875 -20.109375 37.234375 -21.265625 C 25.421875 -22.421875 14.863281 -26.519531 5.5625 -33.5625 C -3.726562 -40.613281 -10.953125 -50.25 -16.109375 -62.46875 C -21.273438 -74.695312 -23.085938 -86.578125 -21.546875 -98.109375 C -20.015625 -109.648438 -15.539062 -120.054688 -8.125 -129.328125 C -0.71875 -138.609375 9.316406 -145.921875 21.984375 -151.265625 C 35.390625 -156.929688 48.226562 -158.84375 60.5 -157 C 72.78125 -155.164062 83.753906 -149.96875 93.421875 -141.40625 C 103.097656 -132.84375 110.59375 -121.253906 115.90625 -106.640625 L 21.796875 -66.890625 C 26.835938 -59.535156 33.007812 -54.898438 40.3125 -52.984375 C 47.613281 -51.066406 55.140625 -51.742188 62.890625 -55.015625 C 68.546875 -57.410156 73.265625 -60.679688 77.046875 -64.828125 C 80.835938 -68.972656 83.332031 -73.570312 84.53125 -78.625 L 118.953125 -93.171875 C 119.117188 -78.671875 115.238281 -65.617188 107.3125 -54.015625 C 99.382812 -42.421875 88.191406 -33.570312 73.734375 -27.46875 Z M 12.9375 -88.4375 L 73.96875 -114.21875 C 69.007812 -120.550781 63.019531 -124.648438 56 -126.515625 C 48.976562 -128.378906 41.519531 -127.644531 33.625 -124.3125 C 26.175781 -121.164062 20.59375 -116.394531 16.875 -110 C 13.164062 -103.601562 11.851562 -96.414062 12.9375 -88.4375 Z M 12.9375 -88.4375 "/></g></g></g></g></g></g><g clip-path="url(#08d5ed7528)"><g transform="matrix(1, 0, 0, 1, 246, 34)"><g clip-path="url(#babe1794d7)"><g fill="#ffffff" fill-opacity="1"><g transform="translate(6.617581, 209.99329)"><g><path d="M 75.96875 0.78125 C 69.675781 0.9375 63.804688 0.15625 58.359375 -1.5625 C 52.921875 -3.289062 48.039062 -5.773438 43.71875 -9.015625 L 44.890625 37.421875 L 15.609375 38.15625 L 12.078125 -101.515625 L 33.84375 -102.0625 L 37.421875 -90.578125 C 41.796875 -95.191406 47.035156 -98.828125 53.140625 -101.484375 C 59.253906 -104.148438 65.96875 -105.578125 73.28125 -105.765625 C 83.425781 -106.015625 92.410156 -103.957031 100.234375 -99.59375 C 108.054688 -95.226562 114.28125 -89.117188 118.90625 -81.265625 C 123.539062 -73.421875 125.988281 -64.296875 126.25 -53.890625 C 126.507812 -43.484375 124.523438 -34.210938 120.296875 -26.078125 C 116.078125 -17.941406 110.171875 -11.492188 102.578125 -6.734375 C 94.984375 -1.972656 86.113281 0.53125 75.96875 0.78125 Z M 41.484375 -51.75 C 41.691406 -43.519531 44.460938 -36.835938 49.796875 -31.703125 C 55.140625 -26.578125 61.925781 -24.117188 70.15625 -24.328125 C 78.488281 -24.546875 85.15625 -27.347656 90.15625 -32.734375 C 95.164062 -38.128906 97.566406 -44.941406 97.359375 -53.171875 C 97.148438 -61.390625 94.410156 -68.066406 89.140625 -73.203125 C 83.867188 -78.335938 77.066406 -80.796875 68.734375 -80.578125 C 60.503906 -80.367188 53.851562 -77.566406 48.78125 -72.171875 C 43.707031 -66.773438 41.273438 -59.96875 41.484375 -51.75 Z M 41.484375 -51.75 "/></g></g></g></g></g></g><g clip-path="url(#17c930a8e2)"><g clip-path="url(#658f995d8e)"><g clip-path="url(#cdc14b2492)"><g transform="matrix(1, 0, 0, 1, 269, 93)"><g clip-path="url(#35cf8ebced)"><g clip-path="url(#a7c0feb8c5)"><g clip-path="url(#7c8324ddfd)"><g clip-path="url(#535f792146)"><path fill="#ff9800" d="M 27.492188 62.683594 L 0.480469 28.847656 L 52.816406 -12.9375 L 79.828125 20.898438 Z M 27.492188 62.683594 " fill-opacity="1" fill-rule="nonzero"/></g></g></g></g></g></g></g></g><g clip-path="url(#8ccaaf3dec)"><g transform="matrix(1, 0, 0, 1, 222, 112)"><g clip-path="url(#54b940578b)"><g clip-path="url(#cfaa561c91)"><path fill="#191919" d="M 0.699219 0.253906 L 64.421875 0.253906 L 64.421875 30.078125 L 0.699219 30.078125 Z M 0.699219 0.253906 " fill-opacity="1" fill-rule="nonzero"/></g></g></g></g></g></g></svg>